<svg width="1467" height="287" viewBox="0 0 1467 287" fill="none" xmlns="http://www.w3.org/2000/svg">
<path d="M261.168 65.8022L180.044 112.602C176.608 114.586 174.494 118.242 174.494 122.197V272.995C174.494 281.45 183.649 286.741 190.976 282.513V129.135C190.976 125.18 193.089 121.51 196.526 119.539L261.168 82.2449V65.8022Z" fill="#9BF9CF" stroke="#9BF9CF" stroke-width="5.7258" stroke-miterlimit="10"/>
<path d="M138.743 205.279L155.198 207.199V125.569C155.198 121.614 153.085 117.944 149.648 115.973L17.2512 39.5951C10.9101 35.9383 3 40.5158 3 47.8294L133.193 122.937C136.629 124.921 138.743 128.577 138.743 132.532V205.279Z" fill="#5433FF" stroke="#5433FF" stroke-width="5.7258" stroke-miterlimit="10"/>
<path d="M298.021 4L165.987 80.5594C162.55 82.5434 158.323 82.5564 154.887 80.5724L90.1536 43.2263L78.3662 52.9129L154.524 96.8465C157.947 98.8305 162.174 98.8175 165.598 96.8465L298.021 20.4426C304.349 16.7988 304.349 7.6568 298.021 4Z" fill="#20BDFF" stroke="#20BDFF" stroke-width="5.7258" stroke-miterlimit="10"/>
<path d="M584.263 187.281C584.263 201.837 582.163 215.077 577.999 227.003C573.817 238.928 567.973 249.082 560.467 257.428C552.961 265.774 544.067 272.276 533.804 276.933C523.54 281.59 512.199 283.909 499.799 283.909C487.398 283.909 476.057 281.59 465.794 276.933C455.53 272.276 446.654 265.774 439.13 257.428C431.624 249.082 425.762 238.946 421.598 227.003C417.416 215.077 415.334 201.837 415.334 187.281C415.334 172.726 417.416 159.486 421.598 147.56C425.762 135.635 431.624 125.426 439.13 116.952C446.654 108.478 455.53 101.922 465.794 97.2649C476.057 92.6079 487.38 90.2886 499.799 90.2886C512.199 90.2886 523.54 92.6079 533.804 97.2649C544.067 101.922 552.943 108.478 560.467 116.952C567.991 125.426 573.835 135.616 577.999 147.56C582.181 159.486 584.263 172.726 584.263 187.281ZM559.572 187.281C559.572 164.143 554.203 145.716 543.465 131.982C532.726 118.267 518.171 111.4 499.799 111.4C481.426 111.4 466.871 118.267 456.133 131.982C445.394 145.697 440.025 164.143 440.025 187.281C440.025 210.42 445.394 228.792 456.133 242.398C466.871 256.004 481.426 262.797 499.799 262.797C518.171 262.797 532.726 256.004 543.465 242.398C554.203 228.792 559.572 210.42 559.572 187.281Z" fill="white"/>
<path d="M638.686 105.665C642.74 102.561 649.241 99.2918 658.19 95.8219C667.139 92.3703 677.694 90.6354 689.857 90.6354C703.226 90.6354 715.096 93.0278 725.47 97.7943C735.843 102.579 744.609 109.245 751.768 117.847C758.927 126.43 764.351 136.639 768.058 148.455C771.747 160.271 773.61 173.219 773.61 187.281C773.61 202.311 771.4 215.789 766.98 227.733C762.561 239.658 756.37 249.812 748.371 258.158C740.372 266.504 730.839 272.896 719.735 277.298C708.631 281.717 696.286 283.927 682.698 283.927C666.244 283.927 652.638 282.849 641.9 280.713C632.111 278.759 623.911 276.695 617.3 274.54C616.149 274.175 615.419 273.097 615.419 271.892V17.3292C615.419 16.343 615.93 15.4299 616.789 14.9368L634.485 4.39929C636.348 3.28527 638.704 4.6367 638.704 6.79169V105.665H638.686ZM638.686 257.775C642.265 258.98 647.579 260.094 654.611 261.172C661.642 262.249 670.901 262.779 682.351 262.779C702.385 262.779 718.493 256.277 730.674 243.274C742.837 230.271 748.919 211.607 748.919 187.263C748.919 176.999 747.841 167.284 745.704 158.098C743.549 148.911 740.098 140.912 735.331 134.119C730.546 127.325 724.301 121.901 716.539 117.828C708.777 113.774 699.171 111.747 687.721 111.747C682.224 111.747 676.982 112.277 671.978 113.354C666.974 114.432 662.317 115.801 658.026 117.463C653.734 119.143 649.972 120.933 646.758 122.832C643.543 124.75 640.859 126.54 638.704 128.202V257.775H638.686Z" fill="white"/>
<path d="M970.335 187.281C970.335 201.837 968.234 215.077 964.07 227.003C959.888 238.928 954.044 249.082 946.538 257.428C939.032 265.774 930.139 272.276 919.875 276.933C909.611 281.59 898.27 283.909 885.87 283.909C873.47 283.909 862.128 281.59 851.865 276.933C841.601 272.276 832.726 265.774 825.202 257.428C817.696 249.082 811.833 238.946 807.669 227.003C803.487 215.077 801.405 201.837 801.405 187.281C801.405 172.726 803.487 159.486 807.669 147.56C811.833 135.635 817.696 125.426 825.202 116.952C832.726 108.478 841.601 101.922 851.865 97.2649C862.128 92.6079 873.451 90.2886 885.87 90.2886C898.27 90.2886 909.611 92.6079 919.875 97.2649C930.139 101.922 939.014 108.478 946.538 116.952C954.063 125.426 959.907 135.616 964.07 147.56C968.234 159.486 970.335 172.726 970.335 187.281ZM945.625 187.281C945.625 164.143 940.256 145.716 929.518 131.982C918.779 118.267 904.224 111.4 885.852 111.4C867.48 111.4 852.924 118.267 842.186 131.982C831.447 145.697 826.078 164.143 826.078 187.281C826.078 210.42 831.447 228.792 842.186 242.398C852.924 256.004 867.48 262.797 885.852 262.797C904.224 262.797 918.779 256.004 929.518 242.398C940.256 228.792 945.625 210.42 945.625 187.281Z" fill="white"/>
<path d="M1200.04 90.2886C1212.2 90.2886 1222.52 92.0235 1231 95.4751C1239.47 98.945 1246.32 103.712 1251.58 109.793C1256.82 115.874 1260.64 123.088 1263.03 131.452C1265.4 139.799 1266.61 148.875 1266.61 158.646V275.325C1264.22 276.038 1260.76 276.823 1256.24 277.645C1251.71 278.485 1246.45 279.38 1240.49 280.329C1234.52 281.279 1227.91 282.064 1220.62 282.649C1213.34 283.233 1205.89 283.544 1198.25 283.544C1188.46 283.544 1179.46 282.466 1171.22 280.329C1162.99 278.174 1155.83 274.778 1149.75 270.121C1143.66 265.464 1138.88 259.51 1135.43 252.223C1131.96 244.955 1130.24 236.061 1130.24 225.56C1130.24 215.534 1132.14 206.95 1135.98 199.791C1139.79 192.632 1145.16 186.733 1152.08 182.077C1159 177.42 1167.22 174.023 1176.77 171.886C1186.31 169.731 1196.7 168.672 1207.91 168.672C1211.25 168.672 1214.76 168.854 1218.47 169.201C1222.16 169.567 1225.74 170.041 1229.21 170.626C1232.66 171.229 1235.65 171.831 1238.16 172.416C1240.66 173.018 1242.39 173.548 1243.34 174.023V162.572C1243.34 156.125 1242.87 149.861 1241.92 143.78C1240.97 137.698 1238.87 132.201 1235.65 127.307C1232.44 122.412 1227.89 118.486 1222.05 115.491C1216.2 112.514 1208.5 111.017 1198.96 111.017C1185.36 111.017 1175.22 111.966 1168.54 113.884C1163.77 115.254 1159.92 116.422 1156.96 117.427C1155.33 117.975 1153.6 116.915 1153.33 115.217L1150.97 100.278C1150.77 98.9633 1151.5 97.7214 1152.74 97.2283C1156.74 95.6578 1162.29 94.1602 1169.41 92.754C1177.91 91.1286 1188.1 90.2886 1200.04 90.2886ZM1202.18 262.797C1211.24 262.797 1219.18 262.505 1225.97 261.902C1232.77 261.318 1238.56 260.533 1243.34 259.583V194.44C1240.71 193.253 1236.55 191.993 1230.81 190.678C1225.08 189.363 1217.21 188.706 1207.2 188.706C1201.47 188.706 1195.51 189.126 1189.3 189.966C1183.09 190.806 1177.38 192.596 1172.12 195.335C1166.88 198.074 1162.57 201.837 1159.24 206.603C1155.9 211.37 1154.24 217.689 1154.24 225.578C1154.24 232.5 1155.37 238.344 1157.64 243.11C1159.9 247.895 1163.11 251.694 1167.3 254.561C1171.46 257.428 1176.48 259.51 1182.33 260.825C1188.17 262.14 1194.78 262.797 1202.18 262.797Z" fill="white"/>
<path d="M1331.48 42.6052C1331.48 48.1022 1329.8 52.4487 1326.48 55.663C1323.13 58.8772 1319.08 60.5026 1314.31 60.5026C1309.53 60.5026 1305.47 58.8954 1302.15 55.663C1298.81 52.4487 1297.15 48.084 1297.15 42.6052C1297.15 37.1264 1298.81 32.7617 1302.15 29.5474C1305.49 26.3332 1309.55 24.7261 1314.31 24.7261C1319.08 24.7261 1323.13 26.3332 1326.48 29.5474C1329.8 32.7617 1331.48 37.1264 1331.48 42.6052ZM1323.32 283.471H1305.64C1304.1 283.471 1302.84 282.229 1302.84 280.677V92.4805C1302.84 90.9464 1304.09 89.6862 1305.64 89.6862H1323.32C1324.85 89.6862 1326.11 90.9281 1326.11 92.4805V280.677C1326.11 282.229 1324.87 283.471 1323.32 283.471Z" fill="white"/>
<path d="M1464.12 88.4983L1393.99 88.4253C1378.25 88.407 1365.46 101.173 1365.46 116.915V281.206C1365.46 282.74 1366.7 284 1368.26 284H1387.51C1389.04 284 1390.3 282.758 1390.3 281.206V118.668C1390.3 114.45 1393.73 111.016 1397.95 111.016L1464.14 110.943C1465.67 110.943 1466.93 109.701 1466.93 108.149V91.256C1466.89 89.7402 1465.65 88.4983 1464.12 88.4983Z" fill="white"/>
<path d="M401.655 88.4983L331.526 88.4253C315.784 88.407 303 101.173 303 116.915V281.206C303 282.74 304.242 284 305.794 284H325.043C326.577 284 327.837 282.758 327.837 281.206V118.668C327.837 114.45 331.271 111.016 335.489 111.016L401.673 110.943C403.207 110.943 404.467 109.701 404.467 108.149V91.256C404.449 89.7402 403.189 88.4983 401.655 88.4983Z" fill="white"/>
<path d="M1031.04 90.7272V77.3042H1007.77V206.439H1031.04V110.414H1101.97C1103.5 110.414 1104.76 109.172 1104.76 107.62V93.5031C1104.76 91.9691 1103.52 90.7089 1101.97 90.7089H1031.04V90.7272Z" fill="white"/>
<path d="M1104.87 283.927L1034.75 284C1019 284.018 1006.22 271.253 1006.22 255.51V45.0154C1006.22 44.0475 1006.73 43.1343 1007.57 42.623L1026.82 30.9897C1028.68 29.8757 1031.06 31.2088 1031.06 33.3821V253.739C1031.06 257.958 1034.49 261.391 1038.71 261.391L1104.89 261.464C1106.43 261.464 1107.69 262.706 1107.69 264.258V281.151C1107.67 282.685 1106.41 283.927 1104.87 283.927Z" fill="white"/>
</svg>
