<svg width="1473" height="291" viewBox="0 0 1473 291" fill="none" xmlns="http://www.w3.org/2000/svg">
<path d="M263.168 67.802L182.044 114.601C178.608 116.585 176.494 120.242 176.494 124.197V274.995C176.494 283.45 185.649 288.74 192.975 284.513V131.135C192.975 127.18 195.089 123.51 198.525 121.539L263.168 84.2447V67.802Z" fill="#9BF9CF" stroke="#9BF9CF" stroke-width="10" stroke-miterlimit="10"/>
<path d="M140.743 207.28L157.198 209.199V127.569C157.198 123.614 155.085 119.944 151.648 117.973L19.2512 41.5954C12.9101 37.9386 5 42.5161 5 49.8297L135.193 124.937C138.629 126.921 140.743 130.578 140.743 134.533V207.28Z" fill="#5433FF" stroke="#5433FF" stroke-width="10" stroke-miterlimit="10"/>
<path d="M300.021 6L167.987 82.5594C164.55 84.5434 160.323 84.5564 156.887 82.5724L92.1536 45.2263L80.3662 54.9129L156.524 98.8465C159.947 100.83 164.174 100.818 167.598 98.8465L300.021 22.4426C306.349 18.7988 306.349 9.6568 300.021 6Z" fill="#20BDFF" stroke="#20BDFF" stroke-width="10" stroke-miterlimit="10"/>
<path d="M586.264 189.281C586.264 203.837 584.163 217.077 580 229.003C575.817 240.928 569.973 251.082 562.468 259.428C554.962 267.774 546.068 274.276 535.804 278.933C525.54 283.59 514.199 285.909 501.799 285.909C489.399 285.909 478.058 283.59 467.794 278.933C457.531 274.276 448.655 267.774 441.131 259.428C433.625 251.082 427.762 240.946 423.599 229.003C419.416 217.077 417.334 203.837 417.334 189.281C417.334 174.726 419.416 161.486 423.599 149.56C427.762 137.635 433.625 127.426 441.131 118.952C448.655 110.478 457.531 103.922 467.794 99.2649C478.058 94.6079 489.381 92.2886 501.799 92.2886C514.199 92.2886 525.54 94.6079 535.804 99.2649C546.068 103.922 554.943 110.478 562.468 118.952C569.992 127.426 575.836 137.616 580 149.56C584.182 161.486 586.264 174.726 586.264 189.281ZM561.573 189.281C561.573 166.143 556.203 147.716 545.465 133.982C534.727 120.267 520.171 113.4 501.799 113.4C483.427 113.4 468.872 120.267 458.133 133.982C447.395 147.697 442.026 166.143 442.026 189.281C442.026 212.42 447.395 230.792 458.133 244.398C468.872 258.004 483.427 264.797 501.799 264.797C520.171 264.797 534.727 258.004 545.465 244.398C556.203 230.792 561.573 212.42 561.573 189.281Z" fill="white" stroke="white" stroke-width="7.5"/>
<path d="M640.686 107.665C644.74 104.561 651.242 101.292 660.19 97.8219C669.139 94.3703 679.695 92.6354 691.858 92.6354C705.226 92.6354 717.097 95.0278 727.47 99.7943C737.843 104.579 746.609 111.245 753.768 119.847C760.927 128.43 766.351 138.639 770.058 150.455C773.747 162.271 775.61 175.219 775.61 189.281C775.61 204.311 773.4 217.789 768.981 229.733C764.561 241.658 758.37 251.812 750.371 260.158C742.372 268.504 732.839 274.896 721.735 279.298C710.632 283.717 698.286 285.927 684.699 285.927C668.244 285.927 654.638 284.849 643.9 282.713C634.111 280.759 625.911 278.695 619.3 276.54C618.15 276.175 617.419 275.097 617.419 273.892V19.3292C617.419 18.343 617.931 17.4299 618.789 16.9368L636.485 6.39929C638.348 5.28527 640.704 6.6367 640.704 8.79169V107.665H640.686ZM640.686 259.775C644.265 260.98 649.58 262.094 656.611 263.172C663.642 264.249 672.901 264.779 684.352 264.779C704.386 264.779 720.493 258.277 732.675 245.274C744.837 232.271 750.919 213.607 750.919 189.263C750.919 178.999 749.841 169.284 747.705 160.098C745.55 150.911 742.098 142.912 737.332 136.119C732.547 129.325 726.301 123.901 718.539 119.828C710.778 115.774 701.172 113.747 689.721 113.747C684.224 113.747 678.982 114.277 673.978 115.354C668.975 116.432 664.318 117.801 660.026 119.463C655.734 121.143 651.972 122.933 648.758 124.832C645.544 126.75 642.859 128.54 640.704 130.202V259.775H640.686Z" fill="white" stroke="white" stroke-width="7.5"/>
<path d="M972.334 189.281C972.334 203.837 970.234 217.077 966.07 229.003C961.888 240.928 956.044 251.082 948.538 259.428C941.032 267.774 932.138 274.276 921.875 278.933C911.611 283.59 900.27 285.909 887.87 285.909C875.469 285.909 864.128 283.59 853.865 278.933C843.601 274.276 834.725 267.774 827.201 259.428C819.695 251.082 813.833 240.946 809.669 229.003C805.487 217.077 803.405 203.837 803.405 189.281C803.405 174.726 805.487 161.486 809.669 149.56C813.833 137.635 819.695 127.426 827.201 118.952C834.725 110.478 843.601 103.922 853.865 99.2649C864.128 94.6079 875.451 92.2886 887.87 92.2886C900.27 92.2886 911.611 94.6079 921.875 99.2649C932.138 103.922 941.014 110.478 948.538 118.952C956.062 127.426 961.906 137.616 966.07 149.56C970.234 161.486 972.334 174.726 972.334 189.281ZM947.625 189.281C947.625 166.143 942.256 147.716 931.517 133.982C920.779 120.267 906.224 113.4 887.851 113.4C869.479 113.4 854.924 120.267 844.185 133.982C833.447 147.697 828.078 166.143 828.078 189.281C828.078 212.42 833.447 230.792 844.185 244.398C854.924 258.004 869.479 264.797 887.851 264.797C906.224 264.797 920.779 258.004 931.517 244.398C942.256 230.792 947.625 212.42 947.625 189.281Z" fill="white" stroke="white" stroke-width="7.5"/>
<path d="M1202.04 92.2886C1214.2 92.2886 1224.52 94.0235 1233 97.4751C1241.47 100.945 1248.32 105.712 1253.58 111.793C1258.82 117.874 1262.64 125.088 1265.03 133.452C1267.4 141.799 1268.61 150.875 1268.61 160.646V277.325C1266.22 278.038 1262.76 278.823 1258.23 279.645C1253.71 280.485 1248.45 281.38 1242.49 282.329C1236.52 283.279 1229.91 284.064 1222.62 284.649C1215.34 285.233 1207.88 285.544 1200.25 285.544C1190.46 285.544 1181.46 284.466 1173.22 282.329C1164.99 280.174 1157.83 276.778 1151.75 272.121C1145.66 267.464 1140.88 261.51 1137.43 254.223C1133.96 246.955 1132.24 238.061 1132.24 227.56C1132.24 217.534 1134.14 208.95 1137.98 201.791C1141.79 194.632 1147.16 188.733 1154.08 184.077C1161 179.42 1169.22 176.023 1178.77 173.886C1188.31 171.731 1198.7 170.672 1209.91 170.672C1213.25 170.672 1216.76 170.854 1220.47 171.201C1224.16 171.567 1227.74 172.041 1231.21 172.626C1234.66 173.229 1237.65 173.831 1240.15 174.416C1242.66 175.018 1244.39 175.548 1245.34 176.023V164.572C1245.34 158.125 1244.87 151.861 1243.92 145.78C1242.97 139.698 1240.87 134.201 1237.65 129.307C1234.44 124.412 1229.89 120.486 1224.05 117.491C1218.2 114.514 1210.5 113.017 1200.96 113.017C1187.36 113.017 1177.22 113.966 1170.54 115.884C1165.77 117.254 1161.92 118.422 1158.96 119.427C1157.33 119.975 1155.6 118.915 1155.32 117.217L1152.97 102.278C1152.77 100.963 1153.5 99.7214 1154.74 99.2283C1158.74 97.6578 1164.29 96.1602 1171.41 94.754C1179.91 93.1286 1190.1 92.2886 1202.04 92.2886ZM1204.18 264.797C1213.24 264.797 1221.18 264.505 1227.97 263.902C1234.77 263.318 1240.56 262.533 1245.34 261.583V196.44C1242.71 195.253 1238.55 193.993 1232.81 192.678C1227.08 191.363 1219.21 190.706 1209.2 190.706C1203.47 190.706 1197.51 191.126 1191.3 191.966C1185.09 192.806 1179.38 194.596 1174.12 197.335C1168.88 200.074 1164.57 203.837 1161.24 208.603C1157.9 213.37 1156.24 219.689 1156.24 227.578C1156.24 234.5 1157.37 240.344 1159.63 245.11C1161.9 249.895 1165.11 253.694 1169.3 256.561C1173.46 259.428 1178.48 261.51 1184.33 262.825C1190.17 264.14 1196.78 264.797 1204.18 264.797Z" fill="white" stroke="white" stroke-width="7.5"/>
<path d="M1333.48 44.6052C1333.48 50.1022 1331.8 54.4487 1328.48 57.663C1325.13 60.8772 1321.08 62.5026 1316.31 62.5026C1311.53 62.5026 1307.47 60.8954 1304.15 57.663C1300.81 54.4487 1299.15 50.084 1299.15 44.6052C1299.15 39.1264 1300.81 34.7617 1304.15 31.5474C1307.49 28.3332 1311.55 26.7261 1316.31 26.7261C1321.08 26.7261 1325.13 28.3332 1328.48 31.5474C1331.8 34.7617 1333.48 39.1264 1333.48 44.6052ZM1325.32 285.471H1307.64C1306.1 285.471 1304.84 284.229 1304.84 282.677V94.4805C1304.84 92.9464 1306.09 91.6862 1307.64 91.6862H1325.32C1326.85 91.6862 1328.11 92.9281 1328.11 94.4805V282.677C1328.11 284.229 1326.87 285.471 1325.32 285.471Z" fill="white" stroke="white" stroke-width="7.5"/>
<path d="M1466.12 90.4983L1395.99 90.4253C1380.25 90.407 1367.46 103.173 1367.46 118.915V283.206C1367.46 284.74 1368.7 286 1370.26 286H1389.51C1391.04 286 1392.3 284.758 1392.3 283.206V120.668C1392.3 116.45 1395.73 113.016 1399.95 113.016L1466.14 112.943C1467.67 112.943 1468.93 111.701 1468.93 110.149V93.256C1468.89 91.7402 1467.65 90.4983 1466.12 90.4983Z" fill="white" stroke="white" stroke-width="7.5"/>
<path d="M403.655 90.4983L333.526 90.4253C317.784 90.407 305 103.173 305 118.915V283.206C305 284.74 306.242 286 307.794 286H327.043C328.577 286 329.837 284.758 329.837 283.206V120.668C329.837 116.45 333.271 113.016 337.489 113.016L403.673 112.943C405.207 112.943 406.467 111.701 406.467 110.149V93.256C406.449 91.7402 405.189 90.4983 403.655 90.4983Z" fill="white" stroke="white" stroke-width="7.5"/>
<path d="M1033.04 92.7272V79.3042H1009.77V208.439H1033.04V112.414H1103.97C1105.5 112.414 1106.76 111.172 1106.76 109.62V95.5031C1106.76 93.9691 1105.52 92.7089 1103.97 92.7089H1033.04V92.7272Z" fill="white" stroke="white" stroke-width="7.5"/>
<path d="M1106.87 285.927L1036.75 286C1021 286.018 1008.22 273.253 1008.22 257.51V47.0154C1008.22 46.0475 1008.73 45.1343 1009.57 44.623L1028.82 32.9897C1030.68 31.8757 1033.06 33.2088 1033.06 35.3821V255.739C1033.06 259.958 1036.49 263.391 1040.71 263.391L1106.89 263.464C1108.43 263.464 1109.69 264.706 1109.69 266.258V283.151C1109.67 284.685 1108.41 285.927 1106.87 285.927Z" fill="white" stroke="white" stroke-width="7.5"/>
</svg>
